<svg width="2011" height="2011" viewBox="0 0 2011 2011" fill="none" xmlns="http://www.w3.org/2000/svg">
<mask id="mask0_196_62481" style="mask-type:luminance" maskUnits="userSpaceOnUse" x="0" y="0" width="2011" height="2011">
<path d="M2010.35 0H0V2010.35H2010.35V0Z" fill="white"/>
</mask>
<g mask="url(#mask0_196_62481)">
<path d="M1907.29 336.48L1873.19 309.74C1732.49 199.38 1434.84 13.4602 1022.19 8.09022C1016.13 8.01022 1010.09 7.97021 1004.07 7.97021C582.561 7.97021 278.491 197.03 134.761 309.73L102.961 334.66L105.551 374.99C120.251 604 185.871 940.1 411.231 1265.1H204.221L312.821 1419.63L193.991 1901.61L379.961 1982.39L576.031 1943.04L595.741 1899.92H1387.11L1411.34 1943.25L1616.02 1982.33L1819.6 1900.65L1630.7 1551.07L1806.02 1265.12H1595.34C1673.03 1152.04 1842.81 857.94 1901.97 379.51L1907.29 336.5V336.48Z" fill="#D58AFD"/>
<path d="M1003.97 1757.27C986.061 1757.27 981.931 1755.78 917.201 1711.28C886.421 1690.12 838.101 1655.8 782.691 1612.46C686.051 1536.86 551.551 1420.72 459.631 1296.76C211.741 962.42 141.601 610.23 126.421 373.65L124.541 344.32L147.671 326.19C289.281 215.15 588.841 28.8901 1004.07 28.8901C1010 28.8901 1015.94 28.9301 1021.92 29.0101C1428.42 34.3001 1721.66 217.48 1860.28 326.2L1885.08 345.65L1881.21 376.93C1820.78 865.6 1644.3 1159.47 1571.23 1263.13C1475.43 1399.04 1334.94 1523.65 1233.96 1604.26C1176.16 1650.4 1125.61 1686.78 1093.39 1709.18C1073.71 1722.86 1059.08 1732.58 1050.27 1738.32C1030.32 1751.32 1021.22 1757.26 1003.96 1757.26L1003.97 1757.27Z" fill="#19143A"/>
<path d="M182.08 370.08C270.81 300.51 576.11 78.9904 1021.19 84.7804C1445.12 90.3004 1734.75 298.63 1825.85 370.08C1774.73 783.49 1636.11 1074.26 1525.64 1230.99C1348.14 1482.8 1006.42 1701.49 1003.96 1701.49C1001.5 1701.49 674.5 1492.89 504.43 1263.53C238.5 904.87 192.41 531.04 182.08 370.08Z" fill="#F9F9F7"/>
<path d="M1003.95 1672.66C945.691 1634.71 674.021 1451.26 524.041 1248.99C292.251 936.38 223.511 606.98 207.311 381.4C344.641 276.06 622.601 109.07 1004.07 109.07C1009.65 109.07 1015.25 109.11 1020.88 109.18C1393.46 114.03 1665.16 277.61 1799.91 380.84C1740.17 843.25 1574.62 1119.18 1505.71 1216.94C1348.06 1440.59 1063.74 1633.61 1003.96 1672.67L1003.95 1672.66Z" fill="#9A9A9A"/>
<path d="M1003.42 1593.18C906.532 1526.93 695.712 1369.31 577.242 1209.54C366.882 925.84 296.502 627.45 276.342 412.59C414.712 312.89 666.812 175.3 1004.06 175.3C1009.35 175.3 1014.67 175.33 1020 175.41C1347.38 179.67 1592.78 313.13 1728.94 410.7C1667.27 835.22 1515.7 1087.77 1451.55 1178.78C1322.05 1362.49 1097.92 1527.96 1003.4 1593.19L1003.42 1593.18Z" fill="#14161F"/>
<mask id="mask1_196_62481" style="mask-type:luminance" maskUnits="userSpaceOnUse" x="363" y="1505" width="1275" height="1275">
<path d="M1637.6 2142.82C1637.6 2494.6 1352.44 2779.76 1000.66 2779.76C648.881 2779.76 363.691 2494.6 363.691 2142.82C363.691 1990.51 417.171 1850.69 506.371 1741.09C518.191 1726.52 530.671 1712.5 543.741 1699.05C549.421 1693.19 555.211 1687.44 561.141 1681.83C577.111 1666.56 593.911 1652.16 611.411 1638.64C719.061 1555.39 854.071 1505.86 1000.66 1505.86C1147.25 1505.86 1284.29 1556.13 1392.32 1640.49C1409.75 1654.09 1426.45 1668.59 1442.34 1683.93C1448.2 1689.54 1453.95 1695.29 1459.6 1701.15C1472.57 1714.64 1484.98 1728.69 1496.76 1743.3C1584.85 1852.59 1637.6 1991.54 1637.6 2142.84V2142.82Z" fill="white"/>
</mask>
<g mask="url(#mask1_196_62481)">
<path d="M1003.97 1973.27C986.061 1973.27 981.931 1971.78 917.201 1927.28C886.421 1906.12 838.101 1871.8 782.691 1828.46C686.051 1752.86 551.551 1636.72 459.631 1512.76C211.741 1178.43 141.601 826.24 126.421 589.66L124.541 560.33L147.671 542.2C289.281 431.17 588.851 244.9 1004.08 244.9C1010.01 244.9 1015.95 244.94 1021.93 245.02C1428.43 250.31 1721.67 433.49 1860.29 542.21L1885.09 561.66L1881.22 592.94C1820.79 1081.61 1644.31 1375.48 1571.24 1479.14C1475.44 1615.05 1334.95 1739.66 1233.97 1820.27C1176.17 1866.41 1125.62 1902.79 1093.4 1925.19C1073.72 1938.87 1059.09 1948.59 1050.28 1954.33C1030.33 1967.33 1021.23 1973.27 1003.97 1973.27Z" fill="#D58AFD"/>
<path d="M1003.97 1952.36C992.641 1952.36 990.591 1952.36 929.051 1910.05C898.541 1889.08 850.621 1855.04 795.581 1811.99C699.961 1737.19 566.961 1622.39 476.441 1500.3C231.581 1170.07 162.301 822.09 147.291 588.32L146.111 569.99L160.571 558.66C300.061 449.29 595.121 265.82 1004.07 265.82C1009.91 265.82 1015.77 265.86 1021.66 265.93C1421.99 271.14 1710.83 451.57 1847.38 558.66L1862.88 570.82L1860.46 590.37C1800.61 1074.35 1626.31 1364.71 1554.14 1467.09C1459.76 1600.98 1320.84 1724.16 1220.92 1803.93C1163.59 1849.69 1113.44 1885.79 1081.46 1908.02C1062 1921.55 1047.55 1931.15 1038.85 1936.82C1019.55 1949.4 1014.6 1952.37 1003.97 1952.37V1952.36Z" fill="#19143A"/>
<path d="M182.08 586.091C270.81 516.521 576.11 295.001 1021.19 300.791C1445.12 306.311 1734.75 514.641 1825.85 586.091C1774.73 999.501 1636.11 1290.27 1525.64 1447C1348.14 1698.81 1006.42 1917.5 1003.96 1917.5C1001.5 1917.5 674.5 1708.9 504.43 1479.54C238.5 1120.88 192.41 747.051 182.08 586.091Z" fill="#F9F9F7"/>
<path d="M1003.95 1888.67C945.691 1850.72 674.021 1667.27 524.041 1465C292.251 1152.39 223.511 822.99 207.311 597.4C344.641 492.06 622.601 325.07 1004.07 325.07C1009.65 325.07 1015.25 325.11 1020.88 325.18C1393.46 330.03 1665.16 493.61 1799.91 596.84C1740.17 1059.25 1574.62 1335.18 1505.71 1432.94C1348.06 1656.59 1063.74 1849.61 1003.96 1888.67H1003.95Z" fill="#9A9A9A"/>
<path d="M1003.42 1809.19C906.532 1742.94 695.712 1585.32 577.242 1425.55C366.882 1141.85 296.502 843.461 276.342 628.601C414.712 528.901 666.812 391.311 1004.06 391.311C1009.35 391.311 1014.67 391.341 1020 391.421C1347.38 395.681 1592.78 529.141 1728.94 626.711C1667.27 1051.23 1515.7 1303.78 1451.55 1394.79C1322.05 1578.5 1097.92 1743.97 1003.4 1809.2L1003.42 1809.19Z" fill="#14161F"/>
</g>
<path d="M1547.08 822.96C1537.95 864.68 1526.55 904.92 1512.97 943.44C1504.72 966.77 1495.79 989.2 1486.14 1010.68C1426.45 1143.76 1340.33 1240.84 1234.42 1293.58C1170.5 1325.4 1097.15 1341.55 1016.47 1341.55H1016.45C1011.97 1341.55 1007.39 1341.5 1002.86 1341.4L1001.19 1341.35L999.521 1341.4C994.991 1341.5 990.41 1341.55 985.93 1341.55C905.22 1341.55 831.88 1325.4 767.96 1293.58C667.96 1243.79 585.63 1154.47 526.51 1032.63C526.51 1032.63 526.49 1032.61 526.49 1032.58C515.46 1009.86 505.22 985.99 495.85 961.03C493.66 955.22 491.52 949.36 489.43 943.43C476.04 905.5 464.79 865.9 455.73 824.84C592.97 865.4 792.881 907.86 1035.66 903.11C1193.65 900.01 1331.71 877.68 1444.26 850.66C1481.38 841.75 1515.71 832.35 1547.09 822.95L1547.08 822.96Z" fill="#FEFEFF"/>
<path d="M1562.85 734.63C1557.58 737.39 1552.34 740.171 1547.07 742.951C1420.51 780.851 1245.71 819 1035.63 823.11C792.851 827.86 592.941 785.431 455.701 744.841L440.611 742.38C423.651 626.13 422.721 500.46 438.151 369.93C564.861 298.72 757.631 221.88 1001.17 220.23C1244.72 221.88 1437.49 298.72 1564.19 369.93C1579.28 497.55 1578.71 620.56 1562.84 734.62L1562.85 734.63Z" fill="url(#paint0_linear_196_62481)"/>
<path d="M1570.75 508.16C1555.71 404.49 1473.45 359.89 1473.45 359.89C1473.45 359.89 1464.79 330.13 1428.88 262.03C1362.18 174.97 1271.9 176.82 1241.08 180.41C1234.61 181.17 1230.74 182.01 1230.3 182.08C1230.28 182.1 1230.25 182.1 1230.25 182.1C1230.25 182.1 1229.91 181.78 1229.24 181.16C1222.37 174.64 1181.22 136.12 1146.17 112.34C1133.59 103.82 1121.8 97.2004 1112.67 94.6404C1083.82 87.4804 1056.97 84.6504 1032.53 84.6504C942.271 84.6304 885.471 123.02 885.471 123.02C885.471 123.02 876.661 116.92 853.201 114.38C705.351 99.6104 693.951 206.46 693.951 206.46C693.951 206.46 681.201 197.72 648.781 206.46C561.281 238.48 546.831 358.52 546.831 358.52C494.721 367.58 404.371 467.61 455.691 616.44C496.841 735.84 602.561 747.53 642.751 747.48L642.971 747.46C642.971 747.46 643.041 747.46 643.191 747.48H643.241C652.891 747.46 658.621 746.74 658.621 746.74C658.671 747.18 658.691 747.6 658.741 748.04C671.491 888.9 788.921 840.54 788.921 840.54C850.261 858.16 913.021 867.84 974.701 871.63C1094 878.99 1209.24 864.42 1302.08 843.08C1397.9 821.1 1469.87 791.91 1497.78 772.22C1566.7 723.58 1547.06 645.07 1547.06 645.07C1547.06 645.07 1578.86 567.78 1570.74 508.15L1570.75 508.16Z" fill="#FCD8F7"/>
<path d="M1263.83 301.98C1256.08 339.98 1224.69 368.83 1185.24 390.51C1098.63 438.16 973.101 451.4 973.101 451.4C973.101 451.4 962.301 471.29 945.431 500.13C910.551 559.92 849.691 658.24 805.161 698.09C755.491 742.54 688.761 748.05 658.761 748.05C658.711 747.61 658.691 747.19 658.641 746.75C658.641 746.75 652.911 747.46 643.261 747.49H643.211C643.061 747.47 642.991 747.47 642.991 747.47L642.771 747.49C602.581 747.54 496.861 735.85 455.711 616.45C404.391 467.61 494.751 367.59 546.851 358.53C546.851 358.53 561.301 238.49 648.801 206.47C681.221 197.73 693.971 206.47 693.971 206.47C693.971 206.47 705.371 99.6202 853.221 114.39C876.681 116.93 885.491 123.03 885.491 123.03C885.491 123.03 942.301 84.6302 1032.55 84.6602C1056.99 84.6602 1083.84 87.4902 1112.69 94.6502C1121.82 97.2102 1133.61 103.83 1146.19 112.35C1181.24 136.13 1222.39 174.65 1229.26 181.17C1229.92 181.79 1230.27 182.11 1230.27 182.11C1230.27 182.11 1230.29 182.11 1230.32 182.09C1230.76 182.02 1234.63 181.18 1241.1 180.42C1260.5 210.03 1274.33 250.52 1263.84 301.98H1263.83Z" fill="#45B8FF"/>
<g style="mix-blend-mode:multiply">
<path d="M1547.08 645.081C1547.08 645.081 1566.72 723.601 1497.8 772.231C1469.89 791.921 1397.92 821.111 1302.1 843.091C1209.26 864.431 1094.02 879.001 974.721 871.641L1122.52 674.931C1122.52 674.931 1150.97 655.711 1179.43 624.201C1227.94 570.571 1276.55 481.301 1185.24 390.501C1040.27 246.371 981.201 374.941 946.471 286.901C911.961 199.521 1181.18 138.381 1229.25 181.161C1229.91 181.781 1230.26 182.101 1230.26 182.101C1230.26 182.101 1230.28 182.101 1230.31 182.081C1230.75 182.011 1234.62 181.171 1241.09 180.411C1271.91 176.821 1362.19 174.971 1428.89 262.031C1464.8 330.131 1473.46 359.891 1473.46 359.891C1473.46 359.891 1555.72 404.491 1570.76 508.161C1578.88 567.801 1547.08 645.081 1547.08 645.081Z" fill="#FF5C5C"/>
</g>
<g style="mix-blend-mode:multiply">
<path d="M1302.1 843.1C1209.26 864.44 1094.02 879.01 974.72 871.65C913.04 867.86 850.28 858.19 788.94 840.56C788.94 840.56 671.51 888.92 658.76 748.06C650.12 748.06 644.51 747.62 643.25 747.49H642.98V747.47C642.98 747.47 576.97 575.33 759.97 505.82C813.38 485.54 878.75 484.82 945.43 500.13C1028.18 519.11 1112.95 562.75 1179.43 624.2C1242.91 682.9 1289.7 757.85 1302.1 843.08V843.1Z" fill="#FAE860"/>
</g>
<path d="M1424.82 429.86C1424.82 429.86 1463.47 404.42 1469.12 364.52" stroke="#EFEFEF" stroke-width="29.54" stroke-miterlimit="10" stroke-linecap="round"/>
<path d="M1294.52 441.44C1294.52 441.44 1418.74 323.7 1451.75 501.78" stroke="#EFEFEF" stroke-width="29.54" stroke-miterlimit="10" stroke-linecap="round"/>
<path d="M1320.58 282.51C1320.58 282.51 1410.92 316.75 1357.07 397.54" stroke="#EFEFEF" stroke-width="29.54" stroke-miterlimit="10" stroke-linecap="round"/>
<path d="M1409.19 571.28C1409.19 571.28 1423.76 630.92 1328.74 667.99" stroke="#EFEFEF" stroke-width="29.54" stroke-miterlimit="10" stroke-linecap="round"/>
<path d="M1247.61 606.021C1247.61 606.021 1375.31 621.181 1344.9 822.961" stroke="#EFEFEF" stroke-width="29.54" stroke-miterlimit="10" stroke-linecap="round"/>
<path d="M885.471 129.17C885.471 129.17 984.391 43.2303 1157.26 114.4C1195.39 130.53 1231.1 175.15 1231.1 175.15C1231.1 175.15 1458.7 167.33 1469.12 364.53C1469.12 364.53 1574.92 394.84 1575.01 532.14C1575.14 637.3 1547.07 652.94 1547.07 652.94C1547.07 652.94 1572.61 711.79 1511.74 753.16C1450.87 794.53 1442.19 796.7 1442.19 796.7" stroke="#EFEFEF" stroke-width="29.54" stroke-miterlimit="10" stroke-linecap="round"/>
<path d="M945.301 206.48C945.301 206.48 930.531 109.12 814.131 118.68C697.721 128.24 702.361 208.48 702.361 208.48" stroke="#EFEFEF" stroke-width="29.54" stroke-miterlimit="10" stroke-linecap="round"/>
<path d="M551.561 358.53C551.561 358.53 551.781 224.67 671.661 207.3C737.681 198.61 771.561 262.93 771.561 262.93" stroke="#EFEFEF" stroke-width="29.54" stroke-miterlimit="10" stroke-linecap="round"/>
<path d="M690.98 407.23C690.98 407.23 669.931 295.89 776.781 265.49C843.671 249.85 871.47 310.66 871.47 310.66" stroke="#EFEFEF" stroke-width="29.54" stroke-miterlimit="10" stroke-linecap="round"/>
<path d="M612.59 414.91C612.59 414.91 716.83 366.26 747.24 471.38" stroke="#EFEFEF" stroke-width="29.54" stroke-miterlimit="10" stroke-linecap="round"/>
<path d="M624.75 363.66C624.75 363.66 534.56 334.99 478.89 413.18C423.22 491.36 443.2 639.91 489.24 676.4" stroke="#EFEFEF" stroke-width="29.54" stroke-miterlimit="10" stroke-linecap="round"/>
<path d="M568.761 493.09C568.761 493.09 520.511 562.59 585.661 616.45" stroke="#EFEFEF" stroke-width="29.54" stroke-miterlimit="10" stroke-linecap="round"/>
<path d="M540.49 555.64C540.49 555.64 448.66 587.63 489.24 676.39C529.81 765.15 658.64 746.75 658.64 746.75" stroke="#EFEFEF" stroke-width="29.54" stroke-miterlimit="10" stroke-linecap="round"/>
<path d="M780.251 597.34C780.251 597.34 641.961 617.58 658.631 746.76C675.311 875.94 788.931 848.82 788.931 848.82" stroke="#EFEFEF" stroke-width="29.54" stroke-miterlimit="10" stroke-linecap="round"/>
<path d="M1547.08 652.93C1547.08 652.93 1447.41 715.48 1390.08 636.42" stroke="#EFEFEF" stroke-width="29.54" stroke-miterlimit="10" stroke-linecap="round"/>
<path d="M1562.85 734.63C1557.58 737.39 1552.34 740.17 1547.07 742.95C1456.89 769.96 1342.2 797.08 1207.72 811.94C1190.36 717.04 1107.3 645.09 1007.39 645.09C907.481 645.09 823.321 717.99 806.721 813.82C665.901 799.61 546.941 771.83 455.701 744.85L440.611 742.39C444.701 770.47 449.721 797.97 455.701 824.87C547.381 851.97 667.061 879.89 808.761 894.04C829.331 984.78 910.421 1052.55 1007.39 1052.55C1104.36 1052.55 1186.61 983.82 1206.46 892.11C1341.48 877.29 1456.6 850.08 1547.06 822.98C1553.39 794.21 1558.65 764.75 1562.84 734.64L1562.85 734.63Z" fill="#141920"/>
<path d="M1547.08 822.96C1537.95 864.68 1526.55 904.92 1512.97 943.44C1504.72 966.77 1495.79 989.2 1486.14 1010.68C1426.45 1143.76 1340.33 1240.84 1234.42 1293.58C1170.5 1325.4 1097.15 1341.55 1016.47 1341.55H1016.45C1011.97 1341.55 1007.39 1341.5 1002.86 1341.4L1001.19 1341.35L999.52 1341.4C994.99 1341.5 990.41 1341.55 985.93 1341.55C905.22 1341.55 831.88 1325.4 767.96 1293.58C667.96 1243.79 585.63 1154.47 526.51 1032.63C529.49 1036.57 754.8 1333.28 1103.42 1228.01C1315.98 1163.82 1406.16 983.16 1444.26 850.67C1481.38 841.76 1515.71 832.36 1547.09 822.96H1547.08Z" fill="#A9B8CA"/>
<path d="M1007.4 999.09C1090.4 999.09 1157.68 931.808 1157.68 848.81C1157.68 765.813 1090.4 698.53 1007.4 698.53C924.404 698.53 857.121 765.813 857.121 848.81C857.121 931.808 924.404 999.09 1007.4 999.09Z" fill="#A8A8A8"/>
<path d="M1007.4 980.11C1079.92 980.11 1138.7 921.325 1138.7 848.81C1138.7 776.295 1079.92 717.51 1007.4 717.51C934.887 717.51 876.102 776.295 876.102 848.81C876.102 921.325 934.887 980.11 1007.4 980.11Z" fill="#FDFDFD"/>
<path d="M891.41 843.281C899.89 788.571 960.42 782.831 992.73 822.091C994.12 824.421 980.18 834.141 978.07 836.321C973.34 832.551 968.74 828.591 964.25 824.431C945 808.391 915.46 819.201 911.87 844.331C907.8 872.841 940.961 891.271 963.461 873.741C987.441 853.821 1009.25 831.301 1033.35 811.411C1063.28 781.381 1121.78 799.891 1123.3 843.741C1127.24 875.091 1100.1 903.251 1068.95 900.781C1049.69 901.311 1035.59 888.591 1022.31 875.971C1021.5 875.311 1021.63 874.691 1021.93 873.871C1022.26 872.951 1035.68 860.871 1036.63 861.101C1040.94 864.361 1045.04 867.901 1048.94 871.721C1067.7 889.521 1099.35 878.751 1102.84 853.101C1106.44 826.681 1078.57 808.551 1055.56 820.861C1031.98 840.671 1008.81 860.971 986.07 881.761C951.36 920.061 886.25 897.221 891.41 843.281Z" fill="black"/>
<path d="M231.062 1279.04H1781.12L1614.62 1550.61L1799.91 1893.51L1614.62 1967.85L1420.34 1930.76L1395.29 1885.96H586.782L566.312 1930.76L381.512 1967.85L210.352 1893.51L327.882 1416.8L231.062 1279.04Z" fill="#141920"/>
<path d="M335.192 1346.68L510.682 1326.73L628.212 1623.45L653.182 1609.38L622.352 1526.53L662.812 1314.59H788.052L724.472 1779.03L587.262 1792L470.142 1550.61L423.902 1821.32L267.832 1852.15L381.512 1393.58L335.192 1346.68Z" fill="#E9EAE9"/>
<path d="M788.053 1314.59H1134.86L1217.71 1387.8V1696.08L1111.74 1772.53L770.713 1775.5L813.103 1378.17L937.143 1462.58L934.483 1649.84H1086.69V1424.41H944.113L788.053 1314.59Z" fill="#E9EAE9"/>
<path d="M1204.22 1314.59H1354.51L1452.77 1447.53L1525.99 1326.15L1678.47 1346.68L1547.18 1565.06L1721 1852.15L1529.57 1821.32L1458.55 1653.69L1373.78 1792L1186.88 1775.5L1358.31 1526.53L1204.22 1314.59Z" fill="#E9EAE9"/>
<path d="M267.771 1885.96L437.651 1856.25L543.911 1897.77L381.512 1930.76L267.771 1885.96Z" fill="#39383A"/>
<path d="M1721 1885.96L1530.88 1856.25L1453.94 1903.79L1607.26 1930.76L1721 1885.96Z" fill="#39383A"/>
<path d="M586.781 1822.86L720.391 1806.49L770.651 1856.25H637.961L586.781 1822.86Z" fill="#39383A"/>
<path d="M770.711 1806.49L1111.74 1807.11L1070.64 1856.25H814.381L770.711 1806.49Z" fill="#39383A"/>
<path d="M1181.37 1806.49L1148.13 1856.25H1325.87L1367.78 1822.86L1181.37 1806.49Z" fill="#39383A"/>
<path d="M1601.97 379.82C1635.35 391.94 1666.42 407.53 1693.02 429.86C1679.13 555.68 1643.99 687.73 1596.23 823.47C1596.23 823.47 1636.83 626.71 1601.97 379.81V379.82Z" fill="#2A2A2B"/>
<path d="M399.2 379.82C365.82 391.94 334.75 407.53 308.15 429.86C322.04 555.68 357.18 687.73 404.94 823.47C404.94 823.47 364.34 626.71 399.2 379.81V379.82Z" fill="#2A2A2B"/>
</g>
<defs>
<linearGradient id="paint0_linear_196_62481" x1="427.211" y1="521.86" x2="1575.15" y2="521.86" gradientUnits="userSpaceOnUse">
<stop stop-color="#36A8F4"/>
<stop offset="1" stop-color="#F84164"/>
</linearGradient>
</defs>
</svg>
