<svg width="1842" height="394" viewBox="0 0 1842 394" fill="none" xmlns="http://www.w3.org/2000/svg">
<path d="M20.6111 11.4199L71.2212 80.7199L15.4512 342.21L103.151 381.56L204.331 357.27L213.931 325.85L243.881 340.57L523.241 325.06L527.201 296.53L562.031 323.76L672.661 319.88L699.871 297.49L711.971 319.02L805.671 317.46L808.141 263.67L837.581 317.02H931.421V294.95L960.881 317.43H1074.06L1108.01 292.59V318.17L1273.21 323.33L1309.32 295.51L1312.01 324.83L1584.93 340.99L1609.93 325.63L1626.49 356.46L1741.15 381.66L1827.26 342.79L1727.2 161.96L1811.84 11.8699H1691.55L1646.53 43.1599L1627.85 11.1599H1334.04L1321.76 30.6999L1297.74 11.6799H1122.01L1112.9 25.4899L1095.7 10.9999H971.641L927.201 49.5499L881.331 10.8999H623.311L617.771 66.2999L589.471 10.8999H210.871L205.391 50.5599L153.741 11.3399L20.6111 11.4199Z" fill="#E9EAE9"/>
<path d="M0 0.830017L57.9402 83.69L3.29004 348.69L102.44 393.49L213.34 366.47L221.54 342.06L241.52 353.06L534.16 335.59L536.61 317.61L558.91 335.04L676.92 330.99L696.1 315.42L704.66 330.65L815.98 328.05L817.51 303.67L832.38 328.69L943.18 327.12V318.46L955.78 327.91H1079.18L1096.95 314.76V328.87L1277.35 334.07L1300.35 316.42L1301.63 334.71L1587.39 352.12L1605.59 341.44L1618.83 367.33L1742.15 393.59L1841.46 348.53L1739.57 160.91L1831.28 0.700012H1687.58L1650.29 27.44L1633.7 0.650024H1327.71L1318.96 14.1L1303.22 0.140015H1116.89L1110 8.16998L1099.87 0.480042H969.62L925.87 35.43L884.07 0.0800171H613.01L610.16 27.22L595.8 0H201.3L196.73 29.04L157.37 0.790039L0 0.830017Z" fill="#141920"/>
<path d="M42.0195 318.14L93.2097 72.29L69.4895 47.55L154.74 36L214.85 195.51L226.53 188.21L211.19 144.92L228.75 29.54H292.35L262.11 280.25L195.6 285.5L136.76 157.85L117.62 300.14L42.0195 318.14Z" fill="#E9EAE9"/>
<path d="M309.5 29.54H492.42L466.9 86.78L337.17 88.6L366.33 107.21L364.39 120.92L450.59 119.34L446.07 175.66L359.63 178.36L355.81 211.77L474.72 207.15L469.53 267.84L281.66 277.77L309.5 29.54Z" fill="#E9EAE9"/>
<path d="M572.97 29.0098H509.16L490.43 226.29L537.83 264.86L642.05 261.59L692.75 220.9L705.31 29.1598H640.66L628.31 199.3L559.25 200.46L572.97 29.0098Z" fill="#E9EAE9"/>
<path d="M709.389 29.04H874.169L917.659 65.92L915.859 153.59L876.579 185.77L917.279 257.2L843.469 258.74L807.849 192.09H780.019L776.959 258.54L708.939 260.35L721.259 61.33L783.859 105.43L782.069 133.91H850.249L851.619 85.46H786.359L709.389 29.04Z" fill="#E9EAE9"/>
<path d="M935.439 65.67L978.799 28.79H1089L1124 65.56L1125.54 220.85L1076 259.36H976.509L931.529 219.6L935.439 65.67Z" fill="#E9EAE9"/>
<path d="M968.041 85.21H1058.16V196.72H989.101L991.031 104.71L968.041 85.21Z" fill="#141920"/>
<path d="M1127.29 28.73H1291.58L1336.63 66.53L1345.64 225.49L1297.94 263.99L1144.7 260.05L1140.84 61.45L1206.63 106.19L1209.37 199.2L1278.1 200.67L1272.18 86.21H1206.93L1127.29 28.73Z" fill="#E9EAE9"/>
<path d="M1351.68 29.25L1366.09 267.51L1528.31 276.69L1551.45 214.92L1429.19 209.38L1427.06 175.81L1513.32 179.34L1508.61 121.12L1422.77 120.48V106.64L1389.4 87.27L1519.25 89.34L1534.93 29.72L1351.68 29.25Z" fill="#E9EAE9"/>
<path d="M1544.97 29.46H1615.27L1658.69 100.72L1692.6 35.98L1767.78 47.78L1702.96 160.46L1790.37 319.39L1700.82 299L1664.8 212.89L1625.51 285.06L1547.66 277.55L1620 152.32L1544.97 29.46Z" fill="#E9EAE9"/>
<path d="M44.3906 336.18L124.081 316.68L185.771 344.61L105.811 363.55L44.3906 336.18Z" fill="#39383A"/>
<path d="M206.67 302.11L266.43 297.24L305.29 319.93L246.92 323.96L206.67 302.11Z" fill="#39383A"/>
<path d="M290.01 295.71L480.32 285.47L502.51 308.35L324.72 318.6L290.01 295.71Z" fill="#39383A"/>
<path d="M542.17 283.41L648.08 279.5L663.47 303.05L566.09 306.34L542.17 283.41Z" fill="#39383A"/>
<path d="M709.65 278.24L778.51 276.98L788.36 300.7L723.05 301.53L709.65 278.24Z" fill="#39383A"/>
<path d="M840.52 276.9H922.13V299.42H846.13L840.52 276.9Z" fill="#39383A"/>
<path d="M966.029 299.35V276.59L1078.04 277.89L1070.7 300.08L966.029 299.35Z" fill="#39383A"/>
<path d="M1128.34 301.57L1139.34 278.55L1289.28 283.1L1268.3 305.97L1128.34 301.57Z" fill="#39383A"/>
<path d="M1333.65 308.2L1355.96 285.17L1522.66 294.49L1491.63 317.22L1333.65 308.2Z" fill="#39383A"/>
<path d="M1510.17 318.27L1542.54 295.87L1614.2 301.99L1578.3 323.42L1510.17 318.27Z" fill="#39383A"/>
<path d="M1644.72 342.35L1695.37 315.61L1792.32 337.99L1737.16 363.68L1644.72 342.35Z" fill="#39383A"/>
</svg>
